<?xml version="1.0" encoding="utf-8"?><svg xmlns="http://www.w3.org/2000/svg" xmlns:xlink="http://www.w3.org/1999/xlink"><symbol viewBox="0 0 32 25" id="check"><path d="M12.28 15.34L4.836 7.766l-4.651 4.64 12.093 12.406L31.814 4.924 27.163.19z" fill-rule="evenodd"/></symbol><symbol viewBox="0 0 32 23" id="eye"><g fill-rule="evenodd"><path d="M31.948 11.418v-.075c0-.015 0-.022-.007-.037 0-.015 0-.03-.008-.045v-.007a1.65 1.65 0 0 0-.334-.83c-1.017-1.53-2.235-2.89-3.467-4.136-2.658-2.681-5.702-4.921-9.058-5.825-1.938-.523-3.89-.545-5.843-.105-1.775.404-3.416 1.24-5.012 2.27C5.717 4.25 3.423 6.483 1.433 8.984c-.371.463-.735.934-1.07 1.442a1.874 1.874 0 0 0 0 2.135c1.018 1.531 2.236 2.89 3.468 4.137 2.658 2.681 5.628 4.922 8.984 5.825 1.938.523 3.89.545 5.843.105 1.774-.404 3.482-1.24 5.086-2.27 2.502-1.621 4.796-3.854 6.786-6.355.371-.463.735-.934 1.07-1.442.177-.224.296-.522.333-.836v-.007c0-.015 0-.03.008-.045 0-.015 0-.023.007-.038v-.149c.007-.022 0-.045 0-.067zm-15.866 8.625c-4.7 0-8.501-3.831-8.501-8.55 0-4.727 3.808-8.55 8.5-8.55 4.693 0 8.502 3.83 8.502 8.55 0 4.719-3.802 8.55-8.501 8.55z"/><path d="M16.082 6.795c-.208 0-.416.015-.617.045a2.583 2.583 0 0 1 1.159 2.158 2.565 2.565 0 0 1-2.562 2.577c-1.091 0-2.02-.68-2.39-1.643a4.762 4.762 0 0 0-.268 1.568c0 2.591 2.094 4.697 4.67 4.697 2.577 0 4.67-2.106 4.67-4.697s-2.079-4.705-4.662-4.705z"/></g></symbol><symbol viewBox="0 0 32 23" id="eye-closed"><g fill-rule="evenodd"><path d="M24.654 3.26c1.221.893 2.382 1.923 3.478 3.028 1.232 1.247 2.45 2.606 3.467 4.137.178.224.297.515.334.829v.007c.008.015.008.03.008.045a.068.068 0 0 1 .007.037v.075c0 .022.007.045 0 .067v.149c-.007.015-.007.023-.007.038-.008.015-.008.03-.008.045v.007a1.676 1.676 0 0 1-.334.836c-.334.508-.698.979-1.07 1.442-1.989 2.501-4.283 4.734-6.785 6.354-1.604 1.031-3.312 1.867-5.086 2.27-1.953.441-3.905.419-5.843-.104-1.772-.477-3.437-1.327-5.005-2.418l2.414-2.414a8.445 8.445 0 0 0 5.858 2.353c4.7 0 8.5-3.831 8.5-8.55a8.547 8.547 0 0 0-2.306-5.855l2.378-2.378zM22.95 2.134c-1.239-.733-2.533-1.31-3.877-1.671-1.938-.523-3.89-.545-5.843-.105-1.775.404-3.416 1.24-5.012 2.27C5.717 4.25 3.423 6.483 1.433 8.984c-.371.463-.735.934-1.07 1.442a1.874 1.874 0 0 0 0 2.135c1.018 1.531 2.236 2.89 3.468 4.137a32.863 32.863 0 0 0 2.374 2.184l2.74-2.74a8.548 8.548 0 0 1-1.364-4.648c0-4.727 3.808-8.55 8.5-8.55 1.721 0 3.323.514 4.662 1.4l2.208-2.209z"/><path d="M16.578 8.508a2.585 2.585 0 0 0-1.113-1.668c.2-.03.409-.045.617-.045.65 0 1.27.135 1.832.377l-1.336 1.336zm-3.018 3.018a2.563 2.563 0 0 1-1.889-1.594 4.762 4.762 0 0 0-.267 1.568 4.7 4.7 0 0 0 .364 1.818l1.792-1.792zm-.623 3.451c.83.758 1.93 1.22 3.137 1.22 2.577 0 4.67-2.106 4.67-4.697 0-1.205-.45-2.306-1.19-3.14l-6.617 6.617z"/><path d="M26.838.246l1.414 1.415L7.04 22.874l-1.414-1.415z"/></g></symbol><symbol viewBox="0 0 254 380" id="icon"><path d="M1.8 162.372c8.59-14 96.445-31.64 112.98-43.203 16.536-11.563 28.856-22.254 28.856-22.254s-8.512-39.194 24.563-74.239c33.074-35.045 72.03-28.049 63.289 11.197-8.74 39.247-50.27 55.63-50.051 63.805.219 8.176 17.992 29.717 32.676 53.252 14.684 23.536 48.331 55.692 37.055 132.985-3.755 25.737-11.682 50.451-33.206 67.973-28.738 23.393-53.404 27.96-81.404 27.219-49.988-1.324-86.14-46.598-88.711-67.52-2.57-20.922 9.91-35.748 14.61-33.871 4.698 1.877 10.837 52.408 59.937 61.492 49.1 9.084 101.805-3.613 109.203-60.297 7.399-56.684-18.633-80.89-39.824-109.922-21.191-29.031-35.192-48.82-38.524-50.031-3.332-1.211-40.297 35.023-73.195 62.933-32.899 27.91-49.012 44.415-55.633 40.403C17.8 218.282-6.79 176.372 1.8 162.372zm177.407-91.594s-7.317-10.887 4.843-26.836c12.16-15.95 24.778-11.157 18.32 2.898-6.456 14.055-23.163 23.938-23.163 23.938z" fill-rule="evenodd"/></symbol><symbol viewBox="0 0 625 415" id="logo"><path d="M2.148 122.07c7.315-10.506 82.138-23.742 96.22-32.418 14.083-8.676 24.575-16.698 24.575-16.698s-7.249-29.409 20.92-55.705c28.167-26.296 61.343-21.046 53.9 8.402-7.444 29.448-41.09 42.07-42.626 47.876 1.416 6.49 15.323 22.298 27.828 39.957 12.506 17.66 39.343 41.313 31.558 99.785-.523 3.933-.34 1.995-1.207 5.61-2.1 8.753 12.442-3.06 17.372-6.176 2.498-14.907 23.035-54.11 35.497-70.568s25.243-33.059 48.443-23.674c16.947 6.855 12.44 25.885-3.605 47.709-25.902 35.234-57.024 52.48-58.664 55.892-1.64 3.412 10.52 34.717 26.95 30.864 16.43-3.854 29.227-26.95 38.022-36.631 8.794-9.681 22.148-31.775 29.086-40.797 3.373-9.41 23.785-64.312 41.136-104.287C404.903 31.236 433.993 0 450.91 0c16.919 0 8.064 37.959-23 93.005-19.704 34.918-44.678 65.913-68.954 93.563-6.164 7.021-3.673 60.166 11.998 66.495 15.671 6.33 25.95-12.735 30.838-16.04 1.127-9.214 10.888-64.85 37.528-95.867 26.639-31.016 59.223-37.948 66.537-1.816.67 3.31 2.277 15.535 1.697 19.895-.299 2.242-5.814 5.092-10.753 4.955-4.94-.138-9.111-2.57-10.868-4.955-4.812-6.533-5.817-13.707-17.303-18.079-11.485-4.372-24.964 12.161-37.358 35.876-12.394 23.715-15.574 64.872-2.317 73.008 13.258 8.136 27.408.255 42.82-27.815 15.41-28.071 13.67-39.412 15.745-45.193 1.542-4.296 5.549-5.179 9.28-4.988 3.733.19 9.057.543 9.057 3.454 0 2.91-.673 8.781-4.21 19.58-3.537 10.8-9.177 20.777-8.596 25.539 1.176 9.637-2.767 34.174 22.539 35.286 1.417-3.56 5.888-53.688 35.132-106.154 12.467-22.367 30.638-34.946 50.827-34.946 8.323 0 29.728 18.592 20.606 68.867-16.32 89.945-77.25 95.543-88.084 96.566-.13.693-8.335 42.598-32.456 105.465-8.183 21.327-28.622 29.16-40.734 29.06-12.113-.099-24.439-5.893-28.782-13.98-2.213-4.121-12.953-21.09-10.58-26.888 2.371-5.798 26.356 6.2 28.249 8.348 4.216 4.786 5.67 6.625 12.156 7.721 12.04 2.035 18.3-8.282 22.073-19.491 14.766-43.875 27.215-88.352 27.364-89.332-11.01.448-21.946-2.497-26.284-7.585-4.338-5.089-10.709-18.735-12.05-20.927-9.117 12.683-19.088 22.583-28.57 26.979-31.645 14.668-37.122-9.221-41.625-18.457-3.415 4.128-2.464 2.411-15.28 13.628-12.817 11.216-27.122 13.89-38.947 0-11.825-13.891-10.656-57.683-9.242-66.116-27.918 38.313-43.353 75.782-73.123 75.753-33.594-.032-35.44-40.961-36.558-47.6-19.035 14.364-35.972 23.463-43.44 27.458-25.818 13.81-45.481 20.98-69.328 20.423-42.573-.993-73.362-34.964-75.551-50.663-2.19-15.698 8.44-26.823 12.442-25.415 4.002 1.408 9.23 39.324 51.046 46.14 41.816 6.817 86.703-2.71 93.004-45.243 6.3-42.532-15.869-60.696-33.917-82.48-18.047-21.783-29.97-36.632-32.808-37.54-2.838-.909-34.32 26.28-62.338 47.222s-41.74 33.326-47.38 30.315c-5.639-3.01-26.58-34.457-19.265-44.962zm146.6-64.611c-1.834-5.48-1.742-12.286 8.614-24.253 10.357-11.968 21.102-8.371 15.603 2.175-5.5 10.546-19.209 19.463-24.216 22.078zm104.41 141.154s4.248-18.278 23.637-42.82c19.388-24.541 29.004-14.251 24.227-1.75-4.777 12.5-47.865 44.57-47.865 44.57zM368.321 153.8s8.547-25.978 39.878-85.786c31.332-59.808 54.313-59.227 19.625-.068-34.688 59.158-59.503 85.854-59.503 85.854zm170.88 101.945c3.7-14.875 9.532-44.948 19.113-72.283 9.581-27.334 21.027-41.55 33.035-42.482 12.008-.932 14.189 20.88 2.4 57.727-11.788 36.847-32.51 50.91-54.548 57.038z" fill-rule="evenodd"/></symbol></svg>