<svg width="733" height="553" viewBox="0 0 733 553" xmlns="http://www.w3.org/2000/svg"><title>Combined Shape</title><path d="M2.09 162.684c8.59-14 96.445-31.64 112.98-43.203 16.536-11.563 28.856-22.254 28.856-22.254s-8.512-39.194 24.563-74.239c33.074-35.045 72.03-28.049 63.29 11.198-8.741 39.246-50.27 55.629-50.052 63.805.219 8.175 17.992 29.716 32.676 53.252 14.684 23.535 46.195 55.058 37.055 132.985-.615 5.241-.4 2.658-1.418 7.476-2.466 11.666 14.61-4.078 20.398-8.23 2.934-19.868 27.047-72.114 41.68-94.048 14.633-21.933 29.64-44.058 56.882-31.551 19.899 9.136 14.605 34.498-4.233 63.583-30.415 46.957-66.957 69.941-68.883 74.488-1.926 4.547 12.351 46.269 31.644 41.133 19.293-5.135 34.319-35.916 44.645-48.818 10.326-12.903 26.006-42.348 34.153-54.372 3.96-12.54 27.927-85.709 48.3-138.984C475 41.629 509.156 0 529.021 0c19.866 0 9.469 50.588-27.006 123.95-23.136 46.535-52.46 87.844-80.965 124.693-7.237 9.357-4.312 80.184 14.088 88.62 18.4 8.435 30.469-16.973 36.21-21.377 1.323-12.28 12.784-86.428 44.064-127.764s69.54-50.575 78.127-2.42c.787 4.41 2.673 20.703 1.992 26.514-.35 2.988-6.826 6.786-12.626 6.603-5.8-.183-10.698-3.426-12.76-6.603-5.651-8.707-6.83-18.267-20.317-24.094-13.486-5.827-29.313 16.207-43.865 47.812-14.553 31.606-18.288 86.457-2.721 97.3 15.567 10.842 32.182.34 50.277-37.07 18.096-37.411 16.053-52.525 18.489-60.23 1.81-5.726 6.515-6.902 10.897-6.648 4.383.254 10.634.725 10.634 4.603 0 3.88-.79 11.704-4.943 26.096-4.153 14.393-10.776 27.689-10.094 34.036 1.38 12.843-3.248 45.544 26.465 47.026 1.664-4.745 6.914-71.551 41.252-141.474C660.857 169.765 682.194 153 705.899 153c9.773 0 34.906 24.777 24.195 91.78-19.162 119.871-90.705 127.332-103.426 128.696-.154.923-9.787 56.771-38.11 140.554-9.608 28.424-33.607 38.863-47.83 38.73-14.222-.132-28.695-7.855-33.795-18.632-2.598-5.492-15.209-28.108-12.424-35.834 2.786-7.727 30.948 8.262 33.17 11.125 4.952 6.379 6.659 8.83 14.274 10.29 14.138 2.713 21.488-11.037 25.918-25.976 17.338-58.473 31.955-117.748 32.131-119.055-12.928.598-25.769-3.327-30.862-10.108-5.094-6.782-12.575-24.969-14.15-27.89-10.705 16.903-22.412 30.097-33.547 35.955-37.156 19.549-43.587-12.29-48.875-24.598-4.01 5.502-2.893 3.214-17.942 18.162-15.048 14.949-31.845 18.513-45.73 0-13.885-18.512-12.512-76.875-10.852-88.113-32.781 51.06-50.904 100.995-85.86 100.957-39.446-.043-41.613-54.59-42.925-63.437-22.351 19.143-42.238 31.269-51.007 36.593-30.315 18.407-53.404 27.961-81.404 27.22-49.988-1.325-86.14-46.599-88.711-67.52-2.57-20.922 9.91-35.749 14.61-33.872 4.698 1.877 10.837 52.409 59.937 61.493 49.1 9.084 101.805-3.614 109.203-60.297 7.399-56.684-18.632-80.891-39.824-109.923-21.191-29.031-35.191-48.82-38.523-50.031-3.333-1.211-40.297 35.023-73.196 62.934-32.899 27.91-49.012 44.414-55.633 40.402C18.09 218.594-6.5 176.684 2.09 162.684zM179.497 71.09s-7.317-10.887 4.843-26.836c12.16-15.95 24.778-11.156 18.32 2.899-6.456 14.054-23.163 23.937-23.163 23.937zM296.82 264.696s4.99-24.36 27.755-57.067c22.766-32.707 34.057-18.993 28.447-2.333-5.609 16.66-56.202 59.4-56.202 59.4zm135.225-59.725s10.036-34.62 46.825-114.328c36.789-79.707 63.773-78.934 23.043-.092-40.73 78.842-69.868 114.42-69.868 114.42zm200.646 135.864c4.343-19.824 11.191-59.902 22.441-96.332 11.25-36.43 24.69-55.375 38.79-56.618 14.099-1.242 16.66 27.827 2.818 76.934-13.842 49.108-38.172 67.85-64.05 76.016z" fill="#FFF" fill-rule="evenodd"/></svg>