<?xml version="1.0" encoding="UTF-8"?>
<svg width="32px" height="23px" viewBox="0 0 32 23" version="1.1" xmlns="http://www.w3.org/2000/svg" xmlns:xlink="http://www.w3.org/1999/xlink">
    <!-- Generator: Sketch 41.2 (35397) - http://www.bohemiancoding.com/sketch -->
    <title>eye-closed</title>
    <desc>Created with Sketch.</desc>
    <defs></defs>
    <g id="icons" stroke="none" stroke-width="1" fill="none" fill-rule="evenodd">
        <g id="Artboard" transform="translate(-160.000000, -4.000000)">
            <g id="eye-closed" transform="translate(160.000000, 4.000000)">
                <path d="M24.6539056,3.260308 C25.875311,4.15277221 27.0363371,5.18279998 28.1317865,6.28766234 C29.3642691,7.53474026 30.5819026,8.89383117 31.5990719,10.4246753 C31.7772622,10.6487013 31.8960557,10.9399351 31.9331787,11.2535714 C31.9331787,11.261039 31.9331787,11.261039 31.9331787,11.261039 C31.9406032,11.275974 31.9406032,11.2909091 31.9406032,11.3058442 C31.9480278,11.3207792 31.9480278,11.3282468 31.9480278,11.3431818 L31.9480278,11.3655844 L31.9480278,11.4178571 C31.9480278,11.4402597 31.9554524,11.4626623 31.9480278,11.4850649 L31.9480278,11.5597403 L31.9480278,11.612013 L31.9480278,11.6344156 C31.9406032,11.6493506 31.9406032,11.6568182 31.9406032,11.6717532 C31.9331787,11.6866883 31.9331787,11.7016234 31.9331787,11.7165584 C31.9331787,11.724026 31.9331787,11.724026 31.9331787,11.724026 C31.8960557,12.0376623 31.7772622,12.3363636 31.5990719,12.5603896 C31.2649652,13.0681818 30.9011601,13.5386364 30.5299304,14.0016234 C28.5401392,16.5032468 26.2459397,18.736039 23.7438515,20.3564935 C22.1401392,21.387013 20.4324826,22.2233766 18.6580046,22.6266234 C16.7053364,23.0672078 14.7526682,23.0448052 12.8148492,22.5220779 C11.0425661,22.0448955 9.37795929,21.1949147 7.81009323,20.1041203 L10.2241613,17.6900522 C11.748213,19.1478343 13.8099953,20.0428571 16.0816705,20.0428571 C20.7814385,20.0428571 24.5828306,16.212013 24.5828306,11.4925325 C24.5828306,9.22831186 23.7061545,7.16862885 22.2758322,5.6383814 L24.6539056,3.260308 Z M22.9513538,2.13443259 C21.7120354,1.40123413 20.4179212,0.824892886 19.0737819,0.462987013 C17.1359629,-0.0597402597 15.1832947,-0.0821428571 13.2306265,0.358441558 C11.4561485,0.761688312 9.81531323,1.59805195 8.21902552,2.62857143 C5.71693735,4.24902597 3.42273782,6.48181818 1.43294664,8.98344156 C1.06171694,9.44642857 0.697911833,9.91688312 0.363805104,10.4246753 C-0.0816705336,11.0967532 -0.0816705336,11.8883117 0.363805104,12.5603896 C1.38097448,14.0912338 2.59860789,15.4503247 3.83109049,16.6974026 C4.59594758,17.4688319 5.38662556,18.2037792 6.20489351,18.8808929 L8.94491331,16.1408731 C8.08162638,14.8024506 7.58051044,13.2060635 7.58051044,11.4925325 C7.58051044,6.76558442 11.3893271,2.94220779 16.0816705,2.94220779 C17.8024092,2.94220779 19.4043332,3.45737088 20.7431831,4.34260331 L22.9513538,2.13443259 Z" id="Combined-Shape" fill="#000000"></path>
                <path d="M16.5775253,8.50826113 C16.444622,7.81231586 16.0338176,7.2173223 15.4654292,6.84025974 C15.6658933,6.81038961 15.8737819,6.79545455 16.0816705,6.79545455 C16.7328514,6.79545455 17.3519636,6.92968866 17.9138096,7.17197685 L16.5775253,8.50826113 Z M13.5601431,11.5256433 C12.6922153,11.3535619 11.9842183,10.7433967 11.6714617,9.93181818 C11.5006961,10.4246753 11.4041763,10.9474026 11.4041763,11.5 C11.4041763,12.1443218 11.53363,12.7586324 11.7677675,13.3180189 L13.5601431,11.5256433 Z M12.9369186,14.977295 C13.766372,15.7349557 14.8673564,16.1970779 16.0742459,16.1970779 C18.65058,16.1970779 20.7443155,14.0912338 20.7443155,11.5 C20.7443155,10.2952003 20.2949009,9.19371812 19.5542814,8.35993218 L12.9369186,14.977295 Z" id="Combined-Shape" fill="#000000"></path>
                <rect id="Rectangle" fill="#140420" transform="translate(16.939340, 11.560660) rotate(-315.000000) translate(-16.939340, -11.560660) " x="15.9393398" y="-3.43933983" width="2" height="30"></rect>
            </g>
        </g>
    </g>
</svg>