<?xml version="1.0" encoding="UTF-8"?>
<svg width="32px" height="23px" viewBox="0 0 32 23" version="1.1" xmlns="http://www.w3.org/2000/svg" xmlns:xlink="http://www.w3.org/1999/xlink">
    <!-- Generator: Sketch 41.2 (35397) - http://www.bohemiancoding.com/sketch -->
    <title>eye</title>
    <desc>Created with Sketch.</desc>
    <defs></defs>
    <g id="icons" stroke="none" stroke-width="1" fill="none" fill-rule="evenodd">
        <g id="Artboard" transform="translate(-128.000000, -4.000000)" fill="#000000">
            <g id="eye" transform="translate(128.000000, 4.000000)">
                <path d="M31.9480278,11.4178571 L31.9480278,11.3655844 L31.9480278,11.3431818 C31.9480278,11.3282468 31.9480278,11.3207792 31.9406032,11.3058442 C31.9406032,11.2909091 31.9406032,11.275974 31.9331787,11.261039 C31.9331787,11.261039 31.9331787,11.261039 31.9331787,11.2535714 C31.8960557,10.9399351 31.7772622,10.6487013 31.5990719,10.4246753 C30.5819026,8.89383117 29.3642691,7.53474026 28.1317865,6.28766234 C25.4737819,3.60681818 22.4296984,1.36655844 19.0737819,0.462987013 C17.1359629,-0.0597402597 15.1832947,-0.0821428571 13.2306265,0.358441558 C11.4561485,0.761688312 9.81531323,1.59805195 8.21902552,2.62857143 C5.71693735,4.24902597 3.42273782,6.48181818 1.43294664,8.98344156 C1.06171694,9.44642857 0.697911833,9.91688312 0.363805104,10.4246753 C-0.0816705336,11.0967532 -0.0816705336,11.8883117 0.363805104,12.5603896 C1.38097448,14.0912338 2.59860789,15.4503247 3.83109049,16.6974026 C6.48909513,19.3782468 9.45893271,21.6185065 12.8148492,22.5220779 C14.7526682,23.0448052 16.7053364,23.0672078 18.6580046,22.6266234 C20.4324826,22.2233766 22.1401392,21.387013 23.7438515,20.3564935 C26.2459397,18.736039 28.5401392,16.5032468 30.5299304,14.0016234 C30.9011601,13.5386364 31.2649652,13.0681818 31.5990719,12.5603896 C31.7772622,12.3363636 31.8960557,12.0376623 31.9331787,11.724026 C31.9331787,11.724026 31.9331787,11.724026 31.9331787,11.7165584 C31.9331787,11.7016234 31.9331787,11.6866883 31.9406032,11.6717532 C31.9406032,11.6568182 31.9406032,11.6493506 31.9480278,11.6344156 L31.9480278,11.612013 L31.9480278,11.5597403 L31.9480278,11.4850649 C31.9554524,11.4626623 31.9480278,11.4402597 31.9480278,11.4178571 Z M16.0816705,20.0428571 C11.3819026,20.0428571 7.58051044,16.212013 7.58051044,11.4925325 C7.58051044,6.76558442 11.3893271,2.94220779 16.0816705,2.94220779 C20.7740139,2.94220779 24.5828306,6.77305195 24.5828306,11.4925325 C24.5828306,16.212013 20.7814385,20.0428571 16.0816705,20.0428571 Z" id="Shape"></path>
                <path d="M16.0816705,6.79545455 C15.8737819,6.79545455 15.6658933,6.81038961 15.4654292,6.84025974 C16.1633411,7.30324675 16.6236659,8.09480519 16.6236659,8.99837662 C16.6236659,10.4246753 15.4802784,11.5746753 14.062181,11.5746753 C12.9707657,11.5746753 12.0426914,10.8951299 11.6714617,9.93181818 C11.5006961,10.4246753 11.4041763,10.9474026 11.4041763,11.5 C11.4041763,14.0912338 13.4979118,16.1970779 16.0742459,16.1970779 C18.65058,16.1970779 20.7443155,14.0912338 20.7443155,11.5 C20.7443155,8.90876623 18.6654292,6.79545455 16.0816705,6.79545455 Z" id="Shape"></path>
            </g>
        </g>
    </g>
</svg>