<?xml version="1.0" encoding="UTF-8"?>
<svg width="254px" height="380px" viewBox="0 0 254 380" version="1.1" xmlns="http://www.w3.org/2000/svg" xmlns:xlink="http://www.w3.org/1999/xlink">
    <!-- Generator: Sketch 41.2 (35397) - http://www.bohemiancoding.com/sketch -->
    <title>icon</title>
    <desc>Created with Sketch.</desc>
    <defs></defs>
    <g id="Page-1" stroke="none" stroke-width="1" fill="none" fill-rule="evenodd">
        <g id="logo" transform="translate(-226.000000, -112.000000)" fill="#FFFFFF">
            <path d="M227.799768,274.371827 C236.389641,260.37178 324.245355,242.731097 340.780566,231.168558 C357.315778,219.60602 369.636131,208.914578 369.636131,208.914578 C369.636131,208.914578 361.124384,169.721088 394.198713,134.67605 C427.273042,99.6310114 466.228249,106.627128 457.487986,145.873353 C448.747722,185.119577 407.218287,201.502444 407.437038,209.678252 C407.655789,217.854061 425.429286,239.395148 440.112928,262.930383 C454.796571,286.465617 488.444106,318.622033 477.167739,395.9152 C473.413039,421.651559 465.486281,446.366403 443.961574,463.888082 C415.224111,487.281134 390.558193,491.848665 362.557983,491.106923 C312.569535,489.7827 276.417071,444.509112 273.84675,423.587167 C271.276429,402.665222 283.756939,387.839001 288.456174,389.715961 C293.155408,391.59292 299.2941,442.124338 348.393873,451.208353 C397.493646,460.292367 450.198899,447.595059 457.597361,390.911277 C464.995823,334.227495 438.964487,310.020383 417.77301,280.989036 C396.581533,251.95769 382.581487,232.168562 379.249444,230.95762 C375.917402,229.746679 338.952435,265.981174 306.053888,293.891423 C273.155342,321.801672 257.042007,338.305633 250.420891,334.293901 C243.799775,330.282169 219.209896,288.371874 227.799768,274.371827 Z M405.206562,182.777772 C405.206562,182.777772 397.890131,171.891017 410.050328,155.941746 C422.210525,139.992474 434.827754,144.785458 428.370702,158.840193 C421.913649,172.894927 405.206562,182.777772 405.206562,182.777772 Z" id="icon"></path>
        </g>
    </g>
</svg>