<?xml version="1.0" encoding="UTF-8"?>
<svg width="625px" height="415px" viewBox="0 0 625 415" version="1.1" xmlns="http://www.w3.org/2000/svg" xmlns:xlink="http://www.w3.org/1999/xlink">
    <!-- Generator: Sketch 41.2 (35397) - http://www.bohemiancoding.com/sketch -->
    <title>logo</title>
    <desc>Created with Sketch.</desc>
    <defs></defs>
    <g id="Page-1" stroke="none" stroke-width="1" fill="none" fill-rule="evenodd">
        <g id="logo" transform="translate(-101.000000, -150.000000)" fill="#FFFFFF">
            <path d="M103.147853,272.06923 C110.463455,261.564365 185.28615,248.327766 199.368434,239.651873 C213.450718,230.97598 223.943399,222.95371 223.943399,222.95371 C223.943399,222.95371 216.694334,193.54507 244.862227,167.2492 C273.030121,140.95333 306.206491,146.202831 298.762808,175.65104 C291.319125,205.099249 257.673195,217.720836 256.136704,223.526729 C257.5526,230.016529 271.459878,245.824653 283.965266,263.484199 C296.470653,281.143745 323.307832,304.797278 315.523154,363.268695 C314.999534,367.20165 315.182825,365.26363 314.315531,368.878715 C312.215444,377.632363 326.757698,365.818704 331.687994,362.703003 C334.18641,347.795708 354.722658,308.592982 367.184797,292.135164 C379.646936,275.677347 392.427526,259.076278 415.628451,268.46072 C432.575408,275.315521 428.067089,294.345764 412.023059,316.169913 C386.120707,351.404005 354.998792,368.650093 353.358687,372.06183 C351.718582,375.473566 363.878069,406.779082 380.308977,402.925733 C396.739886,399.072384 409.536452,375.97624 418.33081,366.294999 C427.125168,356.613757 440.478885,334.51954 447.416897,325.497784 C450.790257,316.087664 471.201751,261.18626 488.552601,221.211203 C505.903451,181.236146 534.992865,150 551.911233,150 C568.829601,150 559.975136,187.958533 528.911501,243.004988 C509.20695,277.922527 484.233439,308.918251 459.957215,336.56834 C453.793229,343.588987 456.284444,396.733901 471.955268,403.063492 C487.626091,409.393084 497.904195,390.328102 502.792907,387.023349 C503.920323,377.809392 513.681476,322.172513 540.320712,291.156195 C566.959948,260.139877 599.544189,253.207956 606.858128,289.340413 C607.52789,292.649184 609.134909,304.87516 608.554788,309.234881 C608.256444,311.476997 602.740814,314.327205 597.801785,314.189812 C592.862756,314.052419 588.690551,311.619286 586.934008,309.234881 C582.121608,302.702326 581.116983,295.528304 569.631396,291.156195 C558.14581,286.784087 544.667157,303.317101 532.273218,327.032186 C519.879278,350.747271 516.698641,391.904397 529.956111,400.040119 C543.213582,408.175842 557.363874,400.29512 572.775209,372.224503 C588.186543,344.153885 586.446257,332.812949 588.520885,327.032186 C590.06285,322.73564 594.069596,321.853062 597.801785,322.043547 C601.533975,322.234032 606.858128,322.587256 606.858128,325.497784 C606.858128,328.408311 606.184856,334.279213 602.64808,345.07863 C599.111305,355.878046 593.470513,365.854597 594.051666,370.616824 C595.227684,380.253641 591.285444,404.790611 616.590639,405.902942 C618.00814,402.342549 622.479049,352.214991 651.723158,299.748553 C664.189706,277.382499 682.361191,264.80317 702.549789,264.80317 C710.872966,264.80317 732.277945,283.394788 723.155899,333.67027 C706.836254,423.614786 645.906159,429.213344 635.072481,430.236278 C634.941756,430.92904 626.737248,472.834479 602.616476,535.700605 C594.433406,557.028194 573.994476,564.861572 561.881649,564.761916 C549.768823,564.662261 537.443082,558.867585 533.099964,550.780832 C530.88678,546.659951 520.147124,529.690497 522.519122,523.892891 C524.89112,518.095284 548.875945,530.092234 550.768522,532.240507 C554.985223,537.026903 556.439028,538.866134 562.924597,539.962345 C574.965099,541.997467 581.22533,531.680293 584.997819,520.470896 C599.763757,476.596083 612.212732,432.11894 612.362294,431.138507 C601.352297,431.586957 590.416321,428.641989 586.078193,423.553695 C581.740064,418.465401 575.369258,404.818929 574.027758,402.627151 C564.91067,415.309918 554.940348,425.209809 545.457309,429.60557 C513.812924,444.273985 508.335936,420.384505 503.832527,411.14878 C500.417582,415.277157 501.369043,413.560297 488.552601,424.776674 C475.736159,435.99305 461.430981,438.667628 449.605922,424.776674 C437.780862,410.885719 438.950227,367.093708 440.364111,358.661092 C412.445726,396.974246 397.011238,434.44252 367.241363,434.413949 C333.64665,434.381708 331.801105,393.452596 330.683305,386.813779 C311.648269,401.178098 294.711408,410.276573 287.242981,414.271808 C261.425461,428.082892 241.761763,435.251892 217.915264,434.69533 C175.342388,433.701706 144.552987,399.730894 142.363962,384.032217 C140.174937,368.33354 150.804018,357.208759 154.806141,358.617126 C158.808264,360.025493 164.036307,397.941491 205.852339,404.757636 C247.668371,411.573781 292.555026,402.04642 298.855958,359.514026 C305.15689,316.981632 282.987191,298.817947 264.939379,277.03442 C246.891567,255.250894 234.968367,240.40222 232.130619,239.493596 C229.292871,238.584972 197.811498,265.773346 169.79331,286.715662 C141.775121,307.657978 128.052131,320.041643 122.413229,317.03146 C116.774327,314.021277 95.8322516,282.574095 103.147853,272.06923 Z M249.748818,207.458549 C247.914102,201.978979 248.00604,195.173265 258.362323,183.205809 C268.718607,171.238352 279.464125,174.834744 273.964948,185.380644 C268.465771,195.926544 254.756446,204.844066 249.748818,207.458549 Z M354.157115,348.61347 C354.157115,348.61347 358.406201,330.334955 377.794708,305.793316 C397.183214,281.251676 406.799208,291.541848 402.021943,304.042755 C397.244679,316.543662 354.157115,348.61347 354.157115,348.61347 Z M469.322117,303.799258 C469.322117,303.799258 477.868629,277.821406 509.200296,218.013433 C540.531963,158.20546 563.513398,158.785807 528.825004,217.944554 C494.136611,277.1033 469.322117,303.799258 469.322117,303.799258 Z M640.2025,405.743933 C643.901885,390.86888 649.733741,360.796358 659.314883,333.461433 C668.896026,306.126507 680.341832,291.910939 692.349864,290.978867 C704.357897,290.046795 706.538605,311.858166 694.75014,348.705798 C682.961675,385.55343 662.240791,399.616583 640.2025,405.743933 Z"></path>
        </g>
    </g>
</svg>